<svg width="60" height="60" viewBox="0 0 60 60" fill="none" xmlns="http://www.w3.org/2000/svg">
<rect opacity="0.1" width="60" height="60" rx="30" fill="#605BFF"/>
<path d="M20.1895 30.8154C20.2685 30.7654 20.3677 30.8237 20.3799 30.835C22.4007 32.1918 24.8318 33.094 27.3828 33.4688C27.7429 33.5194 28.1039 33.2863 28.2041 32.9219C28.4242 32.0917 29.1342 31.5442 29.9844 31.5439H30.0146C30.865 31.544 31.5757 32.0916 31.7959 32.9219C31.8961 33.286 32.2563 33.5191 32.6162 33.4688C35.1673 33.0941 37.5983 32.1918 39.6191 30.835C39.6191 30.835 39.6394 30.8254 39.6592 30.8154C39.6991 30.7952 39.7596 30.7853 39.8096 30.8154C39.8978 30.8652 39.8994 30.9832 39.8994 30.9873L39.8193 36.1514C39.8193 38.2779 38.1186 40 36.0176 40H23.9717C21.8708 39.9998 20.1699 38.2778 20.1699 36.1514L20.0996 30.9873C20.0996 30.9833 20.1015 30.8654 20.1895 30.8154ZM29.9941 32.9922C29.5844 32.9927 29.2442 33.3371 29.2441 33.752V35.0586C29.2444 35.4834 29.5845 35.8169 29.9941 35.8174C30.4142 35.8174 30.7449 35.4837 30.7451 35.0586V33.752C30.7451 33.3368 30.4143 32.9922 29.9941 32.9922ZM31.2852 20C32.7858 20 34.0168 21.1441 34.207 22.6123H36.1885C38.2893 22.6125 39.9999 24.3443 40 26.4707C40 26.4707 39.9399 27.3713 39.9199 28.625C39.9179 28.7241 39.8699 28.8212 39.791 28.8799C39.3098 29.2353 38.8691 29.5296 38.8291 29.5498C37.1684 30.6636 35.2385 31.4471 33.1826 31.8369C33.0486 31.8632 32.9167 31.7933 32.8486 31.6738C32.2724 30.6754 31.1957 30.0254 29.9951 30.0254C28.8026 30.0254 27.7164 30.6685 27.123 31.668C27.054 31.7854 26.9231 31.8534 26.79 31.8281C24.7512 31.4372 22.8216 30.6541 21.1709 29.5596L20.21 28.8906C20.1302 28.84 20.0802 28.7494 20.0801 28.6484C20.0501 28.132 20 26.4707 20 26.4707C20.0001 24.3443 21.7107 22.6125 23.8115 22.6123H25.7832C25.9734 21.1442 27.2036 20.0001 28.7041 20H31.2852ZM28.7041 21.5186C28.034 21.5187 27.4639 21.9847 27.3037 22.6123H32.6865C32.5263 21.9846 31.9554 21.5186 31.2852 21.5186H28.7041Z" fill="#605BFF"/>
</svg>
