<svg width="60" height="60" viewBox="0 0 60 60" fill="none" xmlns="http://www.w3.org/2000/svg">
<rect opacity="0.1" width="60" height="60" rx="30" fill="#FF8F6B"/>
<path d="M30.0044 20C32.6843 20 34.8877 22.106 34.9995 24.7744H34.9741C34.9772 24.8519 34.9619 24.9292 34.9302 25H35.0864C36.3502 25 37.6756 25.9097 38.144 28.1201L38.9136 34.3145C39.4792 38.3531 37.2076 39.9999 34.1587 40H25.8687C22.8107 40 20.4687 38.8627 21.105 34.3145L21.8823 28.1201C22.28 25.8463 23.6498 25.0002 24.9312 25H25.0103C24.9971 24.9254 24.9971 24.8491 25.0103 24.7744C25.1221 22.1062 27.3247 20.0002 30.0044 20ZM27.0972 28.3291C26.6091 28.3291 26.2134 28.7369 26.2134 29.2393C26.2135 29.7415 26.6092 30.1484 27.0972 30.1484C27.5851 30.1483 27.9808 29.7414 27.981 29.2393C27.981 28.737 27.5852 28.3292 27.0972 28.3291ZM32.8853 28.3291C32.3974 28.3294 32.0015 28.737 32.0015 29.2393C32.0016 29.7413 32.3975 30.1482 32.8853 30.1484C33.3733 30.1484 33.7689 29.7415 33.769 29.2393C33.769 28.7369 33.3734 28.3291 32.8853 28.3291ZM29.9653 21.3027C28.0414 21.3029 26.4819 22.857 26.4819 24.7744C26.4951 24.849 26.4951 24.9254 26.4819 25H33.4927C33.4649 24.928 33.4507 24.8515 33.4497 24.7744C33.4497 22.8569 31.8894 21.3027 29.9653 21.3027Z" fill="#FF8F6B"/>
</svg>
